<?xml version="1.0" encoding="utf-8"?><svg version="1.1" id="Layer_1" xmlns="http://www.w3.org/2000/svg" xmlns:xlink="http://www.w3.org/1999/xlink" x="0px" y="0px" viewBox="0 0 118.61 122.88" style="enable-background:new 0 0 118.61 122.88" xml:space="preserve"><style type="text/css">.st0{fill-rule:evenodd;clip-rule:evenodd;}</style><g><path class="st0" d="M46.54,47.49l59.73,10.85l-43.75-30.2c-1.09,0.64-2.35,1.06-3.64,1.18c-1.37,0.13-2.79-0.06-4.09-0.64 L10.39,53.67v63.89l-9.67-1.65c-0.36-0.06-0.66-0.3-0.66-0.66v-59.8c-0.25-1.14,0.27-2.36,1.35-2.95l49.47-27.87 c-0.68-1.57-1.02-3.56-0.86-6.03l4.54,0.28c-0.12,1.84,0.12,3.18,0.58,4.12c0.77,0.15,1.47,0.62,1.87,1.36 c0.06,0.12,0.12,0.24,0.16,0.36c0.36,0.09,0.74,0.12,1.11,0.1c-0.43-0.85-0.39-1.91,0.19-2.75c0.54-0.79,1.43-1.2,2.33-1.17 c-0.16-0.19-0.34-0.34-0.51-0.49c-1.19-1.05-2.34-2.07-2.64-5.43l-0.01-0.01l-0.03-0.3c-2.18-0.87-3.73-3.01-3.73-5.5 c0-2.45,1.49-4.56,3.62-5.46V0h4.55v3.7c2.15,0.89,3.67,3,3.67,5.48c0,2.43-1.46,4.52-3.56,5.43c0.15,1.54,0.63,1.97,1.13,2.41 c0.9,0.8,1.83,1.62,2.45,3.7c0.33,1.12,0.35,2.19,0.12,3.16l51.57,35.59c0.53,0.37,0.89,0.89,1.06,1.47 c0.08,0.13,0.12,0.28,0.12,0.44v47.13c0,0.53-0.45,0.87-0.97,0.97l-71.11,13c-0.52,0.1-0.97-0.44-0.97-0.97V48.46 C45.57,47.93,46.01,47.4,46.54,47.49L46.54,47.49z M14.15,51.73l11.03-1.84v70.19l-11.03-1.88V51.73L14.15,51.73z M28.94,49.26 l12.65-2.11c0.36-0.06,0.66,0.3,0.66,0.66v74.39c0,0.36-0.3,0.72-0.66,0.66l-12.65-2.15V49.51V49.26L28.94,49.26z M115.19,64.71 v40.57h-1.25V64.71H115.19L115.19,64.71z M55.66,56.63v57.94H51.9v-59.1L55.66,56.63L55.66,56.63z M65.93,57.59v55.45h-3.44v-55.9 L65.93,57.59L65.93,57.59z M75.13,59.08v52.42H72v-53L75.13,59.08L75.13,59.08z M83.33,60.36v50.01h-2.82V59.7L83.33,60.36 L83.33,60.36z M90.89,61.57v47.4h-2.5V61.05L90.89,61.57L90.89,61.57z M97.87,62.45v45.45h-2.19V61.95L97.87,62.45L97.87,62.45z M104.12,63.59v43.34h-1.88V63L104.12,63.59L104.12,63.59z M109.94,64.57v41.45h-1.57V63.85L109.94,64.57L109.94,64.57z"/></g></svg>